<?xml version="1.0" standalone="no"?>
<!DOCTYPE svg PUBLIC "-//W3C//DTD SVG 20010904//EN"
 "http://www.w3.org/TR/2001/REC-SVG-20010904/DTD/svg10.dtd">
<svg version="1.0" xmlns="http://www.w3.org/2000/svg"
 width="1024.000000pt" height="1024.000000pt" viewBox="0 0 1024.000000 1024.000000"
 preserveAspectRatio="xMidYMid meet">

<g transform="translate(0.000000,1024.000000) scale(0.100000,-0.100000)"
fill="#000000" stroke="none">
<path d="M0 5120 l0 -5120 5120 0 5120 0 0 5120 0 5120 -5120 0 -5120 0 0
-5120z m6010 2834 c0 -3 -27 -56 -59 -117 -73 -139 -818 -1589 -1111 -2162
-79 -154 -226 -442 -328 -640 -354 -690 -412 -804 -747 -1465 -186 -366 -353
-693 -372 -727 l-34 -63 -163 0 -162 0 79 158 c44 86 198 390 343 675 145 285
264 520 264 522 0 3 -196 5 -435 5 l-435 0 0 64 0 63 78 6 c121 10 176 30 237
90 97 94 90 -8 90 1367 0 1365 6 1270 -84 1360 -57 57 -114 78 -238 87 l-83 6
0 63 0 64 665 0 665 0 0 -64 0 -63 -72 -6 c-110 -10 -169 -31 -226 -82 -56
-51 -86 -111 -101 -206 -14 -85 -15 -2176 -1 -2274 9 -65 62 -195 78 -195 4 1
14 15 22 33 9 18 96 187 194 377 243 470 308 595 572 1110 125 245 342 666
481 935 139 270 322 624 405 788 l153 297 162 0 c90 0 163 -3 163 -6z m950
-1483 c407 -76 625 -218 755 -492 54 -114 76 -214 82 -374 7 -162 -6 -280 -44
-399 -106 -338 -364 -549 -763 -622 -73 -13 -171 -18 -417 -21 l-323 -5 0
-347 c1 -400 11 -583 36 -661 24 -72 99 -149 169 -174 28 -9 92 -20 143 -23
l92 -6 0 -63 0 -64 -650 0 -650 0 0 64 0 63 68 6 c181 16 266 85 292 238 16
96 9 2571 -8 2620 -31 90 -93 140 -192 154 l-50 7 0 65 0 64 673 -4 c637 -4
678 -5 787 -26z"/>
<path d="M6256 6303 c-3 -4 -6 -355 -6 -780 l1 -773 212 0 c253 1 339 13 447
66 153 75 278 244 331 449 30 114 37 338 15 463 -30 172 -107 326 -209 418
-60 54 -168 108 -261 129 -101 24 -512 45 -530 28z"/>
</g>
</svg>
