<?xml version="1.0" standalone="no"?>
<!DOCTYPE svg PUBLIC "-//W3C//DTD SVG 20010904//EN"
 "http://www.w3.org/TR/2001/REC-SVG-20010904/DTD/svg10.dtd">
<svg version="1.0" xmlns="http://www.w3.org/2000/svg"
 width="223.000000pt" height="221.000000pt" viewBox="0 0 223.000000 221.000000"
 preserveAspectRatio="xMidYMid meet">

<g transform="translate(0.000000,221.000000) scale(0.100000,-0.100000)"
fill="#000000" stroke="none">
<path d="M0 1105 l0 -1105 1115 0 1115 0 0 1105 0 1105 -1115 0 -1115 0 0
-1105z m1072 443 l98 -211 -18 -29 -18 -28 -27 55 -27 56 -126 -3 -126 -3 -44
-105 c-24 -58 -43 -114 -44 -124 0 -26 28 -56 54 -57 12 0 30 -4 41 -9 13 -5
-29 -9 -110 -9 -103 1 -124 3 -100 11 66 23 66 23 215 384 121 291 118 284
128 284 4 -1 51 -96 104 -212z m395 30 c-4 -11 -651 -934 -663 -947 -2 -2 -7
-2 -10 2 -8 8 656 957 669 957 5 0 7 -6 4 -12z m268 -368 c-3 -5 -14 -10 -23
-10 -42 0 -85 -44 -177 -182 l-95 -143 1 -125 c1 -164 4 -171 59 -186 41 -11
34 -12 -85 -12 -118 0 -126 1 -86 12 27 7 47 19 52 31 4 11 8 75 8 143 l1 124
-79 113 c-79 113 -79 113 -62 139 l17 26 27 -28 c15 -15 27 -32 27 -36 0 -17
113 -167 120 -159 32 36 150 234 150 251 0 15 -10 26 -32 36 -31 14 -27 14 75
15 70 1 106 -3 102 -9z"/>
<path d="M893 1542 l-51 -127 53 -3 c30 -2 81 -2 114 0 l60 3 -55 120 c-31 66
-59 123 -62 127 -4 4 -30 -50 -59 -120z"/>
</g>
</svg>
